<?xml version="1.0" standalone="no"?>
<!DOCTYPE svg PUBLIC "-//W3C//DTD SVG 20010904//EN"
 "http://www.w3.org/TR/2001/REC-SVG-20010904/DTD/svg10.dtd">
<svg version="1.0" xmlns="http://www.w3.org/2000/svg"
 width="1024.000000pt" height="1024.000000pt" viewBox="0 0 1024.000000 1024.000000"
 preserveAspectRatio="xMidYMid meet">
<metadata>
Created by potrace 1.14, written by Peter Selinger 2001-2017
</metadata>
<g transform="translate(0.000000,1024.000000) scale(0.100000,-0.100000)"
fill="#000000" stroke="none">
<path d="M3447 8967 c-51 -16 -101 -58 -132 -111 -29 -49 -36 -138 -16 -198 6
-18 23 -73 37 -123 14 -49 38 -135 54 -190 16 -55 57 -197 90 -315 34 -118 71
-246 82 -285 11 -38 21 -77 23 -85 2 -8 20 -71 40 -140 20 -69 41 -138 45
-155 26 -93 65 -231 87 -305 22 -73 55 -191 68 -240 2 -8 18 -62 35 -120 17
-58 33 -114 35 -125 3 -11 14 -51 26 -90 31 -107 79 -277 85 -304 3 -14 7 -28
10 -33 3 -5 9 -21 13 -36 l8 -27 -778 0 c-427 0 -779 2 -781 5 -2 3 -29 39
-59 80 -30 41 -59 82 -66 90 -14 18 -232 312 -401 542 -67 91 -137 177 -155
191 -75 57 -78 57 -476 55 -342 -3 -368 -4 -396 -22 -79 -51 -121 -120 -130
-210 -6 -60 -10 -44 143 -561 44 -148 117 -394 162 -545 44 -151 87 -295 95
-320 38 -120 75 -250 75 -268 0 -10 -13 -64 -30 -118 -110 -368 -172 -581
-175 -594 -5 -20 -130 -443 -149 -500 -8 -25 -33 -110 -56 -190 -23 -80 -46
-156 -52 -170 -18 -42 -18 -136 0 -192 22 -66 90 -139 149 -156 30 -9 140 -12
390 -12 313 1 352 3 388 19 60 27 103 72 212 221 54 74 133 182 176 240 73 98
227 306 265 358 9 13 34 47 56 75 l38 52 777 0 777 0 -28 -95 c-31 -101 -35
-119 -42 -150 -5 -20 -48 -168 -65 -225 -6 -16 -31 -104 -56 -195 -25 -91 -54
-194 -65 -230 -23 -78 -53 -183 -55 -190 -1 -3 -5 -18 -9 -35 -5 -16 -14 -49
-22 -72 -7 -23 -16 -52 -18 -65 -3 -13 -10 -39 -16 -58 -6 -19 -13 -42 -15
-51 -2 -9 -13 -46 -24 -84 -12 -37 -23 -77 -26 -89 -2 -11 -18 -68 -35 -126
-30 -100 -34 -118 -44 -158 -3 -9 -55 -190 -115 -402 -118 -410 -126 -452 -92
-526 25 -56 48 -81 101 -112 l45 -27 565 0 c565 0 565 0 607 22 55 30 89 74
165 210 35 63 68 120 73 126 6 7 17 27 24 44 7 18 17 33 21 33 4 0 10 8 13 18
7 20 3 14 317 562 134 234 251 439 260 455 9 17 63 111 120 210 57 99 139 243
183 320 44 77 88 156 99 175 11 19 38 65 59 102 22 36 39 70 39 74 0 4 6 15
14 23 7 9 30 48 51 86 21 39 46 82 56 97 11 14 19 29 19 32 0 3 32 59 70 125
39 66 70 125 70 131 0 5 5 10 10 10 6 0 10 7 10 15 0 8 3 16 8 16 4 1 428 2
942 3 514 1 940 4 945 8 6 3 33 9 62 13 108 13 335 81 442 131 323 153 491
267 626 426 121 143 175 343 136 503 -6 28 -12 55 -13 60 -1 16 -75 153 -98
183 -39 50 -115 126 -165 168 -51 42 -229 164 -240 164 -3 0 -36 17 -73 38
-188 105 -436 192 -621 218 -19 2 -48 7 -65 11 -17 3 -446 6 -953 7 -507 1
-924 4 -926 6 -4 5 -160 278 -202 355 -12 22 -66 116 -119 209 -54 93 -107
187 -119 209 -12 22 -26 47 -32 56 -5 9 -36 64 -69 121 -32 58 -67 117 -77
132 -11 15 -19 29 -19 31 0 3 -58 107 -130 231 -71 125 -130 231 -130 236 0 6
-4 10 -10 10 -5 0 -10 5 -10 11 0 5 -24 51 -54 102 -30 51 -63 108 -73 127
-11 19 -47 82 -80 140 -33 58 -69 121 -79 140 -10 19 -21 37 -24 40 -6 6 -49
84 -64 117 -6 13 -14 23 -18 23 -5 0 -8 5 -8 12 0 6 -13 32 -28 57 -16 25 -76
129 -133 231 -124 219 -169 272 -249 289 -74 16 -1080 14 -1133 -2z"/>
</g>
</svg>
